name rise49.25peak52.1432fall72.8391.mot
datacolumns 19
datarows 21
range 16.96326900000000 16.99660300000000
endheader
time	ground_force1_vx	ground_force1_vy	ground_force1_vz	ground_force1_px	ground_force1_py	ground_force1_pz	ground_force2_vx	ground_force2_vy	ground_force2_vz	ground_force2_px	ground_force2_py	ground_force2_pz	ground_torque1_x	ground_torque1_y	ground_torque1_z	ground_torque2_x	ground_torque2_y	ground_torque2_z	
16.96326900000000	63.85340800000000	810.40055099999995	60.57887600000000	0.33007100000000	0.00000000000000	0.10446900000000	0.00000000000000	0.00000000000000	0.00000000000000	0.00000000000000	0.00000000000000	0.00000000000000	0.00000000000000	25.24206900000000	0.00000000000000	0.00000000000000	0.00000000000000	0.00000000000000	
16.96493500000000	63.27877600000000	811.99327200000005	60.54192500000000	0.32936200000000	0.00000000000000	0.10440400000000	0.00000000000000	0.00000000000000	0.00000000000000	0.00000000000000	0.00000000000000	0.00000000000000	0.00000000000000	25.23614100000000	0.00000000000000	0.00000000000000	0.00000000000000	0.00000000000000	
16.96660500000000	62.70149600000000	813.40380500000003	60.49643700000000	0.32867100000000	0.00000000000000	0.10433800000000	0.00000000000000	0.00000000000000	0.00000000000000	0.00000000000000	0.00000000000000	0.00000000000000	0.00000000000000	25.22777600000000	0.00000000000000	0.00000000000000	0.00000000000000	0.00000000000000	
16.96827000000000	62.12212900000000	814.63348599999995	60.44282500000000	0.32799600000000	0.00000000000000	0.10427200000000	0.00000000000000	0.00000000000000	0.00000000000000	0.00000000000000	0.00000000000000	0.00000000000000	0.00000000000000	25.21712800000000	0.00000000000000	0.00000000000000	0.00000000000000	0.00000000000000	
16.96993700000000	61.54119200000000	815.68388800000002	60.38146600000000	0.32733600000000	0.00000000000000	0.10420700000000	0.00000000000000	0.00000000000000	0.00000000000000	0.00000000000000	0.00000000000000	0.00000000000000	0.00000000000000	25.20432400000000	0.00000000000000	0.00000000000000	0.00000000000000	0.00000000000000	
16.97160300000000	60.95915400000000	816.55682700000000	60.31270200000000	0.32669100000000	0.00000000000000	0.10414100000000	0.00000000000000	0.00000000000000	0.00000000000000	0.00000000000000	0.00000000000000	0.00000000000000	0.00000000000000	25.18946400000000	0.00000000000000	0.00000000000000	0.00000000000000	0.00000000000000	
16.97326800000000	60.37644200000000	817.25435900000002	60.23684600000000	0.32605800000000	0.00000000000000	0.10407600000000	0.00000000000000	0.00000000000000	0.00000000000000	0.00000000000000	0.00000000000000	0.00000000000000	0.00000000000000	25.17262200000000	0.00000000000000	0.00000000000000	0.00000000000000	0.00000000000000	
16.97493200000000	59.79344100000000	817.77878199999998	60.15418000000000	0.32543500000000	0.00000000000000	0.10401100000000	0.00000000000000	0.00000000000000	0.00000000000000	0.00000000000000	0.00000000000000	0.00000000000000	0.00000000000000	25.15385300000000	0.00000000000000	0.00000000000000	0.00000000000000	0.00000000000000	
16.97660300000000	59.21049800000000	818.13263900000004	60.06495700000000	0.32482200000000	0.00000000000000	0.10394600000000	0.00000000000000	0.00000000000000	0.00000000000000	0.00000000000000	0.00000000000000	0.00000000000000	0.00000000000000	25.13318700000000	0.00000000000000	0.00000000000000	0.00000000000000	0.00000000000000	
16.97827100000000	58.62792600000000	818.31871200000000	59.96940800000000	0.32421700000000	0.00000000000000	0.10388200000000	0.00000000000000	0.00000000000000	0.00000000000000	0.00000000000000	0.00000000000000	0.00000000000000	0.00000000000000	25.11063800000000	0.00000000000000	0.00000000000000	0.00000000000000	0.00000000000000	
16.97993700000000	58.04600200000000	818.34002299999997	59.86773600000000	0.32361800000000	0.00000000000000	0.10381800000000	0.00000000000000	0.00000000000000	0.00000000000000	0.00000000000000	0.00000000000000	0.00000000000000	0.00000000000000	25.08619800000000	0.00000000000000	0.00000000000000	0.00000000000000	0.00000000000000	
16.98160300000000	57.46497500000000	818.19983000000002	59.76012600000000	0.32302300000000	0.00000000000000	0.10375400000000	0.00000000000000	0.00000000000000	0.00000000000000	0.00000000000000	0.00000000000000	0.00000000000000	0.00000000000000	25.05984700000000	0.00000000000000	0.00000000000000	0.00000000000000	0.00000000000000	
16.98326700000000	56.88506700000000	817.90162299999997	59.64674500000000	0.32243000000000	0.00000000000000	0.10369100000000	0.00000000000000	0.00000000000000	0.00000000000000	0.00000000000000	0.00000000000000	0.00000000000000	0.00000000000000	25.03154900000000	0.00000000000000	0.00000000000000	0.00000000000000	0.00000000000000	
16.98493300000000	56.30647400000000	817.44911999999999	59.52773900000000	0.32183900000000	0.00000000000000	0.10362800000000	0.00000000000000	0.00000000000000	0.00000000000000	0.00000000000000	0.00000000000000	0.00000000000000	0.00000000000000	25.00125700000000	0.00000000000000	0.00000000000000	0.00000000000000	0.00000000000000	
16.98659900000000	55.72937100000000	816.84626100000003	59.40324300000000	0.32124600000000	0.00000000000000	0.10356700000000	0.00000000000000	0.00000000000000	0.00000000000000	0.00000000000000	0.00000000000000	0.00000000000000	0.00000000000000	24.96891300000000	0.00000000000000	0.00000000000000	0.00000000000000	0.00000000000000	
16.98826500000000	55.15391600000000	816.09720000000004	59.27338000000000	0.32065100000000	0.00000000000000	0.10350500000000	0.00000000000000	0.00000000000000	0.00000000000000	0.00000000000000	0.00000000000000	0.00000000000000	0.00000000000000	24.93445200000000	0.00000000000000	0.00000000000000	0.00000000000000	0.00000000000000	
16.98993700000000	54.58024600000000	815.20630000000006	59.13825900000000	0.32005100000000	0.00000000000000	0.10344500000000	0.00000000000000	0.00000000000000	0.00000000000000	0.00000000000000	0.00000000000000	0.00000000000000	0.00000000000000	24.89779900000000	0.00000000000000	0.00000000000000	0.00000000000000	0.00000000000000	
16.99160400000000	54.00848900000000	814.17812300000003	58.99798500000000	0.31944500000000	0.00000000000000	0.10338500000000	0.00000000000000	0.00000000000000	0.00000000000000	0.00000000000000	0.00000000000000	0.00000000000000	0.00000000000000	24.85887900000000	0.00000000000000	0.00000000000000	0.00000000000000	0.00000000000000	
16.99326400000000	53.43876000000000	813.01742000000002	58.85265300000000	0.31883100000000	0.00000000000000	0.10332500000000	0.00000000000000	0.00000000000000	0.00000000000000	0.00000000000000	0.00000000000000	0.00000000000000	0.00000000000000	24.81761100000000	0.00000000000000	0.00000000000000	0.00000000000000	0.00000000000000	
16.99493200000000	52.87116600000000	811.72912299999996	58.70235500000000	0.31820800000000	0.00000000000000	0.10326700000000	0.00000000000000	0.00000000000000	0.00000000000000	0.00000000000000	0.00000000000000	0.00000000000000	0.00000000000000	24.77391200000000	0.00000000000000	0.00000000000000	0.00000000000000	0.00000000000000	
16.99660300000000	52.30580700000000	810.31833600000004	58.54718100000000	0.31757300000000	0.00000000000000	0.10320900000000	0.00000000000000	0.00000000000000	0.00000000000000	0.00000000000000	0.00000000000000	0.00000000000000	0.00000000000000	24.72770200000000	0.00000000000000	0.00000000000000	0.00000000000000	0.00000000000000	
